<svg id="Layer_1" data-name="Layer 1" xmlns="http://www.w3.org/2000/svg" viewBox="0 0 177.63 163.65"><path d="M50.92,46.35a.41.41,0,0,0,0,.11c0,.14,0,.29,0,.43s0,.12,0,.18a3.4,3.4,0,0,0,.07.34.8.8,0,0,0,0,.15.14.14,0,0,0,0,.07.19.19,0,0,0,0,.08c.05.17.09.34.15.5l.09.23,0,.05,0,.09.11.26c.1.21.21.42.33.62h0L68.34,77l.7,1.19A105.21,105.21,0,0,1,84.36,76.4L66.11,45.86l15-25.14L116.55,80a102.89,102.89,0,0,1,18.77,7.14c0-.21.08-.42.1-.64a7,7,0,0,0-1-4L87.17,3.41a6.93,6.93,0,0,0-.76-1l-.2-.22a6.86,6.86,0,0,0-.91-.81s0,0,0,0a7.28,7.28,0,0,0-1-.59L84,.61a7.47,7.47,0,0,0-1.12-.4l-.1,0A6.51,6.51,0,0,0,81.68,0l-.3,0a6,6,0,0,0-1.2,0l-.09,0A6,6,0,0,0,79,.34l-.3.11A6,6,0,0,0,77.53,1,6.94,6.94,0,0,0,75,3.54v0L75,3.67l-15,25L51.89,42.25c-.11.19-.21.38-.31.58,0,0,0,0,0,.05s-.08.2-.12.3a3.27,3.27,0,0,0-.14.33c0,.05,0,.11,0,.16s-.07.21-.1.32,0,.11,0,.16-.07.33-.1.49v0l0,.15c0,.06,0,.12,0,.18a2.29,2.29,0,0,1,0,.25l0,.25v.7S50.91,46.3,50.92,46.35Z" style="fill:#fff"/><path d="M117.75,159.72c.12.2.25.38.39.57l.11.15.24.27.3.32.11.1.08.08.43.36h0l.23.16a5,5,0,0,0,.54.35l.07,0,.06,0,.35.17.39.19.15.05c.21.08.42.15.64.21l.12,0,.09,0,.18,0,.43.08.18,0H123c.21,0,.44,0,.66,0h29.2c-.21-.53-.41-1.07-.58-1.62A67,67,0,0,0,147,149H127.7l-18.64-31.23a67,67,0,0,0-18.21-3.05l26.83,44.91A.36.36,0,0,0,117.75,159.72Z" style="fill:#fff"/><path d="M.67,159.41A6.94,6.94,0,0,0,7,163.47a6.48,6.48,0,0,0,.76-.06h.15l18,.08,35.78.17h.13a5.84,5.84,0,0,0,.73-.05l.27,0a5.79,5.79,0,0,0,.6-.12h0l.22-.05.21-.08a6.7,6.7,0,0,0,1.37-.6h0l.07,0,.1-.07a.05.05,0,0,1,0,0l.32-.22.27-.2.18-.15.07-.06.29-.25.19-.2.19-.21.09-.09.17-.21.24-.32.1-.15.06-.1c.07-.1.13-.21.19-.31s.11-.2.16-.3l0-.07a2.26,2.26,0,0,0,.11-.22l.15-.36a1.34,1.34,0,0,1,.07-.18l0-.09,0-.11c0-.09.06-.18.08-.26s0-.1,0-.15a.74.74,0,0,1,0-.14l0-.15c0-.07,0-.14,0-.21s0-.22,0-.33,0-.22,0-.33,0-.26,0-.39v-.15h0v-.13c0-.14,0-.28,0-.42l0-.29c0-.1,0-.2,0-.31a.19.19,0,0,1,0-.08l-.06-.31-.09-.34c0-.11-.06-.23-.1-.34a2.49,2.49,0,0,0-.11-.29,2.39,2.39,0,0,0-.15-.37v0c0-.07-.07-.15-.11-.22l-.12-.23c0-.05,0-.1-.08-.14l0,0,0-.07L61,141.64l-8.37-14h0a8.26,8.26,0,0,0-.75-1l-.21-.22a6.42,6.42,0,0,0-.91-.82l0,0a6.73,6.73,0,0,0-1-.59l-.27-.12a5.53,5.53,0,0,0-1.12-.4l-.08,0a7.1,7.1,0,0,0-1.11-.17l-.29,0a8.22,8.22,0,0,0-1.21,0l-.08,0a6.91,6.91,0,0,0-1.11.27l-.31.1a7.4,7.4,0,0,0-1.14.54h0a7,7,0,0,0-2.42,9.64L44.82,142l4.52,7.56-18.41-.09-13.83-.07A79.2,79.2,0,0,1,70.72,104.7a77.7,77.7,0,0,1,13-2c1.74-.12,3.48-.18,5.23-.18a80.11,80.11,0,0,1,11.55.84,78,78,0,0,1,38,16.61,78.41,78.41,0,0,1,22.17,29,79.66,79.66,0,0,1,3.32,8.87h0a7.09,7.09,0,0,0,.51,1.2c.06.12.14.23.21.35a7,7,0,0,0,.49.72l.3.35a5.39,5.39,0,0,0,.59.58c.11.09.21.19.33.28a8.77,8.77,0,0,0,.81.54l.23.13a6.71,6.71,0,0,0,1.14.48l.32.07a7,7,0,0,0,.91.19l.43,0c.15,0,.29,0,.44,0s.3,0,.45,0l.36,0a7.6,7.6,0,0,0,.83-.16l.11,0h0a3,3,0,0,0,.32-.07,7,7,0,0,0,4.71-8.5c0-.09,0-.19,0-.28-.46-1.47-1-2.93-1.49-4.38a91.11,91.11,0,0,0-5.65-12.5,93.31,93.31,0,0,0-25.83-29.93c-2-1.52-4.1-3-6.23-4.29a91.75,91.75,0,0,0-29.42-12l-2-.41a92.79,92.79,0,0,0-15.14-1.66c-.89,0-1.78-.05-2.68-.05a92.8,92.8,0,0,0-13.17.94,90.16,90.16,0,0,0-12.56,2.67,91.49,91.49,0,0,0-26.95,12.84c-1,.72-2,1.46-3.06,2.23-1.87,1.41-3.68,2.9-5.44,4.45-1,.88-2,1.78-2.92,2.7h0A93.43,93.43,0,0,0,2.9,146.93c-1,2.46-1.86,5-2.62,7.5a7.28,7.28,0,0,0,.39,5Z" style="fill:#fff"/></svg>